<?xml version="1.0" encoding="utf-8"?>
<!DOCTYPE svg PUBLIC "-//W3C//DTD SVG 1.1//EN" "http://www.w3.org/Graphics/SVG/1.1/DTD/svg11.dtd">
<svg xmlns="http://www.w3.org/2000/svg"
     viewBox="0 0 360 60"
     width="360"
     height="60">

    <path class="svg-color1" fill="#eb947e" d="M352.428,19.235c-7.46-8.117-16.121-7.207-16.121-7.207s-8.66-0.91-16.119,7.207
    c-0.873,0.949,0.098,2.236,0.102,2.24c0,0,1.025,1.379,1.908,0.549c0,0,4.277-5.723,14.109-5.967
    c9.833,0.244,14.111,5.967,14.111,5.967c0.883,0.83,1.908-0.549,1.908-0.549C352.328,21.472,353.301,20.185,352.428,19.235z"/>
    <path class="svg-color1" fill="#eb947e" d="M359.964,10.958c-7.173-9.494-23.657-9.896-23.657-9.896s-16.483,0.402-23.655,9.896
    c-0.776,1.029,0.1,2.238,0.102,2.242c0,0,1.025,1.379,1.909,0.549c0,0,7.957-8.316,21.645-8.658
    c13.689,0.342,21.646,8.658,21.646,8.658c0.884,0.83,1.908-0.549,1.908-0.549C359.864,13.196,360.74,11.987,359.964,10.958z"/>
    <path class="svg-color1" fill="#eb947e" d="M5.929,49.724c-0.594,0-1.081,0.484-1.081,1.014v6.658c0,0.573-0.595,1.103-1.351,1.103H1.066
    c-0.756,0-1.351-0.529-1.351-1.103V28.339c0-0.705,0.595-1.146,1.351-1.146h6.269c10.861,0,19.723,2.822,19.723,11.288
    c0,4.101-2.107,6.878-5.566,8.642c-1.135,0.793-1.405,1.19-0.865,2.381l4.54,7.629c0.378,0.704,0.378,1.366-0.865,1.366h-3.026
    c-0.919,0-1.297-0.354-1.513-0.662l-4.755-8.067c-0.162-0.266-0.865-0.441-1.675-0.354c-1.892,0.176-3.891,0.309-5.998,0.309H5.929
    z M6.038,31.425c-0.649,0-1.189,0.441-1.189,0.971v12.037c0,0.617,0.432,1.103,1.135,1.103h1.351
    c8.051,0,14.536-1.853,14.536-7.055c0-5.248-6.484-7.056-14.536-7.056H6.038z"/>
    <path class="svg-color1" fill="#eb947e" d="M39,51.09c-0.81,0-1.243,0.441-1.513,1.015l-2.432,5.645c-0.378,0.837-1.459,0.749-2.162,0.749h-2.215
    c-0.703,0-1.081-0.749-0.811-1.366l12.59-29.234c0.163-0.353,0.811-0.705,1.405-0.705h3.08c0.594,0,1.188,0.309,1.351,0.661
    l12.59,29.278c0.27,0.572,0.108,1.366-0.811,1.366h-2.215c-0.702,0-1.783,0.088-2.161-0.749l-2.27-5.292
    c-0.324-0.794-0.811-1.367-1.892-1.367H39z M46.134,35.702c-0.271-0.618-1.297-0.441-1.513,0.088l-4.323,10.186
    c-0.216,0.441,0.378,0.881,1.081,0.881h8.268c0.648,0,1.081-0.484,0.918-0.881L46.134,35.702z"/>
    <path class="svg-color1" fill="#eb947e" d="M66.722,58.498c-0.757,0-1.351-0.529-1.351-1.103V28.339c0-0.705,0.594-1.146,1.351-1.146h10.969
    c10.916,0,19.183,6.79,19.183,15.697c0,8.906-8.268,15.608-19.183,15.608H66.722z M77.691,54.31c8.051,0,13.996-4.85,13.996-11.42
    s-5.944-11.465-13.996-11.465H71.64c-0.649,0-1.135,0.484-1.135,1.104v20.635c0,0.705,0.594,1.146,1.351,1.146H77.691z"/>
    <path class="svg-color1" fill="#eb947e" d="M106.333,27.192c0.756,0,1.351,0.441,1.351,1.146v29.057c0,0.573-0.595,1.103-1.351,1.103h-2.432
    c-0.757,0-1.351-0.529-1.351-1.103V28.339c0-0.705,0.594-1.146,1.351-1.146H106.333z"/>
    <path class="svg-color1" fill="#eb947e" d="M133.026,26.795c10.916,0,19.725,7.188,19.725,16.095c0,8.906-8.809,16.049-19.725,16.049
    c-10.86,0-19.668-7.143-19.668-16.049C113.358,33.982,122.166,26.795,133.026,26.795z M133.026,54.75
    c8.106,0,14.591-5.29,14.591-11.86s-6.485-11.906-14.591-11.906c-8.051,0-14.48,5.336-14.48,11.906S124.975,54.75,133.026,54.75z"
    />
    <path class="svg-color2" fill="#647585" d="M164.369,49.724c-0.595,0-1.08,0.484-1.08,1.014v6.658c0,0.573-0.595,1.103-1.351,1.103h-2.433
    c-0.756,0-1.351-0.529-1.351-1.103V28.339c0-0.705,0.595-1.146,1.351-1.146h6.27c10.86,0,19.722,2.822,19.722,11.288
    c0,8.421-8.862,11.243-19.722,11.243H164.369z M164.478,31.425c-0.648,0-1.188,0.441-1.188,0.971v12.037
    c0,0.617,0.432,1.103,1.135,1.103h1.351c8.051,0,14.535-1.853,14.535-7.055c0-5.248-6.484-7.056-14.535-7.056H164.478z"/>
    <path class="svg-color2" fill="#647585" d="M194.145,27.192c0.756,0,1.352,0.441,1.352,1.146V40.2c0,0.617,0.484,1.146,1.188,1.146h17.184
    c0.649,0,1.189-0.528,1.189-1.146V28.339c0-0.705,0.595-1.146,1.351-1.146h2.432c0.756,0,1.351,0.441,1.351,1.146v29.057
    c0,0.573-0.595,1.103-1.351,1.103h-2.432c-0.756,0-1.351-0.529-1.351-1.103V46.638c0-0.618-0.487-1.103-1.189-1.103h-17.021
    c-0.758,0-1.351,0.44-1.351,1.103v10.758c0,0.573-0.596,1.103-1.352,1.103h-2.433c-0.757,0-1.351-0.529-1.351-1.103V28.339
    c0-0.705,0.594-1.146,1.351-1.146H194.145z"/>
    <path class="svg-color2" fill="#647585" d="M245.264,26.795c10.916,0,19.725,7.188,19.725,16.095c0,8.906-8.809,16.049-19.725,16.049
    c-10.861,0-19.669-7.143-19.669-16.049C225.595,33.982,234.402,26.795,245.264,26.795z M245.264,54.75
    c8.105,0,14.59-5.29,14.59-11.86s-6.484-11.906-14.59-11.906c-8.052,0-14.481,5.336-14.481,11.906S237.212,54.75,245.264,54.75z"/>
    <path class="svg-color2" fill="#647585" d="M297.681,27.192c0.756,0,1.351,0.441,1.351,1.146v29.057c0,0.573-0.595,1.103-1.351,1.103h-2.16
    c-0.704,0-1.137-0.132-1.461-0.529l-17.182-20.899c-0.271-0.309-1.352-0.529-1.352,0.881v19.445c0,0.573-0.595,1.103-1.351,1.103
    h-2.433c-0.757,0-1.352-0.529-1.352-1.103V28.339c0-0.705,0.595-1.146,1.352-1.146h2.433c0.485,0,0.863,0.176,1.296,0.661
    l17.13,20.812c0.378,0.441,1.297,0.705,1.297-0.793V28.339c0-0.705,0.595-1.146,1.351-1.146H297.681z"/>
    <path class="svg-color2" fill="#647585" d="M309.569,27.192c0.757,0,1.352,0.441,1.352,1.146v29.057c0,0.573-0.595,1.103-1.352,1.103h-2.431
    c-0.756,0-1.351-0.529-1.351-1.103V28.339c0-0.705,0.595-1.146,1.351-1.146H309.569z"/>
    <path class="svg-color2" fill="#647585" d="M332.401,42.052c0.54,0.705,0.433,1.146-0.053,1.764l-15.538,13.58c-0.432,0.573,0.054,1.103,0.865,1.103
    h3.08c0.811,0,1.351,0,1.998-0.882l12.673-9.921c0.281-0.372,0.585-0.564,0.881-0.453c0.296-0.111,0.6,0.081,0.881,0.453
    l12.673,9.921c0.647,0.882,1.188,0.882,1.998,0.882h3.08c0.812,0,1.297-0.529,0.865-1.103l-15.538-13.58
    c-0.485-0.617-0.593-1.059-0.053-1.764"/>
    <path class="svg-color1" fill="#eb947e" d="M336.308,43.815c1.554,0,3.906-1.764,3.906-1.764l15.591-13.713c0.485-0.618-0.054-1.146-0.865-1.146h-3.08
    c-0.811,0-1.351,0-1.998,0.881l-12.566,9.789c-0.255,0.333-0.731,0.57-0.987,0.599c-0.256-0.028-0.732-0.266-0.987-0.599
    l-12.566-9.789c-0.647-0.881-1.188-0.881-1.998-0.881h-3.08c-0.812,0-1.351,0.528-0.865,1.146l15.591,13.713
    C332.401,42.052,334.961,43.815,336.308,43.815"/>
</svg>
